<mxfile host="app.diagrams.net" modified="2024-06-16T13:16:45.828Z" agent="Mozilla/5.0 (Windows NT 10.0; Win64; x64) AppleWebKit/537.36 (KHTML, like Gecko) Chrome/125.0.0.0 Safari/537.36" etag="kovSImAPLvwSrDsiFdBm" version="24.5.4" type="device">
  <diagram name="Page-1" id="km6m-WLVxbffgRk6pL5s">
    <mxGraphModel dx="954" dy="592" grid="1" gridSize="10" guides="1" tooltips="1" connect="1" arrows="1" fold="1" page="1" pageScale="1" pageWidth="827" pageHeight="1169" math="0" shadow="0">
      <root>
        <mxCell id="0" />
        <mxCell id="1" parent="0" />
        <mxCell id="_vWmWgTjFIKwOup-lMLS-2" value="&lt;h1 style=&quot;margin-top: 0px;&quot;&gt;Finger user information Protocol&lt;/h1&gt;&lt;p&gt;Port = 79&lt;/p&gt;&lt;p&gt;Connection-type= TCP(default Persistent)&lt;/p&gt;&lt;p&gt;Email Sharing raised security concerns&lt;/p&gt;" style="text;html=1;whiteSpace=wrap;overflow=hidden;rounded=0;" vertex="1" parent="1">
          <mxGeometry x="150" y="120" width="280" height="340" as="geometry" />
        </mxCell>
      </root>
    </mxGraphModel>
  </diagram>
</mxfile>
